<?xml version="1.0" encoding="iso-8859-1"?>
<!-- Generator: Adobe Illustrator 16.0.0, SVG Export Plug-In . SVG Version: 6.00 Build 0)  -->
<!DOCTYPE svg PUBLIC "-//W3C//DTD SVG 1.1//EN" "http://www.w3.org/Graphics/SVG/1.1/DTD/svg11.dtd">
<svg version="1.1" id="Capa_1" xmlns="http://www.w3.org/2000/svg" xmlns:xlink="http://www.w3.org/1999/xlink" x="0px" y="0px"
	 width="235.508px" height="235.508px" viewBox="0 0 235.508 235.508" style="enable-background:new 0 0 235.508 235.508;"
	 xml:space="preserve">
<g>
	<path style="fill:#FFFFFF;" d="M234.038,68.784l-53.804-50.569c-0.564-0.545-1.271-0.876-1.991-1.04c-0.461-0.148-0.95-0.227-1.442-0.227h-28.397
		c-2.513,0-4.568,2.023-4.628,4.546c-0.245,13.17-11.938,23.88-26.021,23.88c-14.106,0-25.798-10.716-26.038-23.88
		c-0.059-2.523-2.112-4.546-4.635-4.546H58.839c-0.074,0-0.126,0.008-0.188,0.008c-1.256-0.008-2.442,0.345-3.393,1.259
		L1.451,68.784C0.525,69.656,0,70.882,0,72.143c0,1.272,0.531,2.497,1.459,3.37l36.183,34.023c1.789,1.693,4.568,1.693,6.352,0
		l10.219-9.618l-0.008,38.089c0,1.979,1.25,3.734,3.108,4.396c1.833,0.613,3.925,0.028,5.16-1.486
		c9.042-11.441,49.097-17.604,77.912-11.946c13.417,2.621,22.113,7.542,23.844,13.493c1.011,3.467-0.2,7.449-3.205,11.586
		c-24.009-14.984-75.234-10.652-95.269,3.149c-9.231,6.355-11.746,14.595-6.893,22.654c11.431,18.995,47.344,15.861,76.926,2.957
		c9.474-4.132,18.888-9.622,25.988-15.974c2.753,3.587,3.543,7.273,2.469,11.261c-2.793,10.371-17.172,20.286-26.465,24.024
		c-21.432,8.588-65.375,11.546-82.782-3.542c-1.897-1.684-4.857-1.471-6.524,0.477c-1.679,1.916-1.469,4.845,0.463,6.517
		c10.709,9.312,28.623,12.987,46.805,12.987c16.709,0,33.666-3.105,45.473-7.851c10.731-4.292,28.104-15.869,31.967-30.191
		c1.844-6.853,0.385-13.598-4.232-19.5c-0.26-0.341-0.513-0.646-0.809-0.971c4.78-6.268,7.021-13.107,4.965-20.137
		c-2.806-9.674-13.509-16.575-30.941-20.001c-24.686-4.807-60.552-1.691-78.686,8.592V89.258c0-1.835-1.103-3.519-2.788-4.248
		c-1.695-0.739-3.648-0.382-5.019,0.877L40.822,99.83L11.399,72.167l48.876-45.949h22.6c2.645,16.03,17.396,28.427,34.895,28.427
		c17.493,0,32.228-12.403,34.865-28.427h22.609l48.883,45.949L194.701,99.83L180.005,86c-1.358-1.258-3.306-1.617-5.021-0.881
		c-1.703,0.739-2.797,2.411-2.797,4.258v44.094c0,2.544,2.084,4.628,4.629,4.628c2.561,0,4.633-2.084,4.633-4.628v-33.38
		l10.07,9.476c1.795,1.695,4.572,1.695,6.363,0l36.188-34.023c0.918-0.87,1.438-2.096,1.438-3.37
		C235.508,70.898,234.976,69.656,234.038,68.784z M132.061,174.302c-25.58,11.177-57.004,14.527-65.287,0.766
		c-1.012-1.703-3.132-5.189,4.216-10.259c9.866-6.789,29.685-11.068,48.604-11.068c13.385,0,26.329,2.123,34.978,7.061
		C148.988,165.578,141.29,170.263,132.061,174.302z"/>
</g>
<g>
</g>
<g>
</g>
<g>
</g>
<g>
</g>
<g>
</g>
<g>
</g>
<g>
</g>
<g>
</g>
<g>
</g>
<g>
</g>
<g>
</g>
<g>
</g>
<g>
</g>
<g>
</g>
<g>
</g>
</svg>
